<svg width="1062" height="210" viewBox="0 0 1062 210" fill="none" xmlns="http://www.w3.org/2000/svg">
<rect width="150" height="100" rx="50" fill="#F2F2F2"/>
<rect y="110" width="220" height="100" rx="50" fill="#F2F2F2"/>
<path d="M353 103.4C360.867 104.867 367.333 108.8 372.4 115.2C377.467 121.6 380 128.933 380 137.2C380 144.667 378.133 151.267 374.4 157C370.8 162.6 365.533 167 358.6 170.2C351.667 173.4 343.467 175 334 175H273.8V35.4H331.4C340.867 35.4 349 36.9333 355.8 40C362.733 43.0667 367.933 47.3333 371.4 52.8C375 58.2667 376.8 64.4667 376.8 71.4C376.8 79.5333 374.6 86.3333 370.2 91.8C365.933 97.2667 360.2 101.133 353 103.4ZM301.8 93H327.4C334.067 93 339.2 91.5333 342.8 88.6C346.4 85.5333 348.2 81.2 348.2 75.6C348.2 70 346.4 65.6667 342.8 62.6C339.2 59.5333 334.067 58 327.4 58H301.8V93ZM330 152.2C336.8 152.2 342.067 150.6 345.8 147.4C349.667 144.2 351.6 139.667 351.6 133.8C351.6 127.8 349.6 123.133 345.6 119.8C341.6 116.333 336.2 114.6 329.4 114.6H301.8V152.2H330ZM430.316 27V175H402.316V27H430.316ZM560.98 117.2C560.98 121.2 560.713 124.8 560.18 128H479.18C479.846 136 482.646 142.267 487.58 146.8C492.513 151.333 498.58 153.6 505.78 153.6C516.18 153.6 523.58 149.133 527.98 140.2H558.18C554.98 150.867 548.846 159.667 539.78 166.6C530.713 173.4 519.58 176.8 506.38 176.8C495.713 176.8 486.113 174.467 477.58 169.8C469.18 165 462.58 158.267 457.78 149.6C453.113 140.933 450.78 130.933 450.78 119.6C450.78 108.133 453.113 98.0667 457.78 89.4C462.446 80.7333 468.98 74.0667 477.38 69.4C485.78 64.7333 495.446 62.4 506.38 62.4C516.913 62.4 526.313 64.6667 534.58 69.2C542.98 73.7333 549.446 80.2 553.98 88.6C558.646 96.8667 560.98 106.4 560.98 117.2ZM531.98 109.2C531.846 102 529.246 96.2667 524.18 92C519.113 87.6 512.913 85.4 505.58 85.4C498.646 85.4 492.78 87.5333 487.98 91.8C483.313 95.9333 480.446 101.733 479.38 109.2H531.98ZM642.817 62.6C656.017 62.6 666.684 66.8 674.817 75.2C682.951 83.4667 687.017 95.0667 687.017 110V175H659.017V113.8C659.017 105 656.817 98.2667 652.417 93.6C648.017 88.8 642.017 86.4 634.417 86.4C626.684 86.4 620.551 88.8 616.017 93.6C611.617 98.2667 609.417 105 609.417 113.8V175H581.417V64.2H609.417V78C613.151 73.2 617.884 69.4667 623.617 66.8C629.484 64 635.884 62.6 642.817 62.6ZM706.444 119.2C706.444 108 708.644 98.0667 713.044 89.4C717.577 80.7333 723.71 74.0667 731.444 69.4C739.177 64.7333 747.777 62.4 757.244 62.4C764.444 62.4 771.31 64 777.844 67.2C784.377 70.2667 789.577 74.4 793.444 79.6V27H821.844V175H793.444V158.6C789.977 164.067 785.11 168.467 778.844 171.8C772.577 175.133 765.31 176.8 757.044 176.8C747.71 176.8 739.177 174.4 731.444 169.6C723.71 164.8 717.577 158.067 713.044 149.4C708.644 140.6 706.444 130.533 706.444 119.2ZM793.644 119.6C793.644 112.8 792.31 107 789.644 102.2C786.977 97.2667 783.377 93.5333 778.844 91C774.31 88.3333 769.444 87 764.244 87C759.044 87 754.244 88.2667 749.844 90.8C745.444 93.3333 741.844 97.0667 739.044 102C736.377 106.8 735.044 112.533 735.044 119.2C735.044 125.867 736.377 131.733 739.044 136.8C741.844 141.733 745.444 145.533 749.844 148.2C754.377 150.867 759.177 152.2 764.244 152.2C769.444 152.2 774.31 150.933 778.844 148.4C783.377 145.733 786.977 142 789.644 137.2C792.31 132.267 793.644 126.4 793.644 119.6ZM891.591 176.8C882.524 176.8 874.391 175.2 867.191 172C859.991 168.667 854.257 164.2 849.991 158.6C845.857 153 843.591 146.8 843.191 140H871.391C871.924 144.267 873.991 147.8 877.591 150.6C881.324 153.4 885.924 154.8 891.391 154.8C896.724 154.8 900.857 153.733 903.791 151.6C906.857 149.467 908.391 146.733 908.391 143.4C908.391 139.8 906.524 137.133 902.791 135.4C899.191 133.533 893.391 131.533 885.391 129.4C877.124 127.4 870.324 125.333 864.991 123.2C859.791 121.067 855.257 117.8 851.391 113.4C847.657 109 845.791 103.067 845.791 95.6C845.791 89.4667 847.524 83.8667 850.991 78.8C854.591 73.7333 859.657 69.7333 866.191 66.8C872.857 63.8667 880.657 62.4 889.591 62.4C902.791 62.4 913.324 65.7333 921.191 72.4C929.057 78.9333 933.391 87.8 934.191 99H907.391C906.991 94.6 905.124 91.1333 901.791 88.6C898.591 85.9333 894.257 84.6 888.791 84.6C883.724 84.6 879.791 85.5333 876.991 87.4C874.324 89.2667 872.991 91.8667 872.991 95.2C872.991 98.9333 874.857 101.8 878.591 103.8C882.324 105.667 888.124 107.6 895.991 109.6C903.991 111.6 910.591 113.667 915.791 115.8C920.991 117.933 925.457 121.267 929.191 125.8C933.057 130.2 935.057 136.067 935.191 143.4C935.191 149.8 933.391 155.533 929.791 160.6C926.324 165.667 921.257 169.667 914.591 172.6C908.057 175.4 900.391 176.8 891.591 176.8ZM1023.78 175L986.175 127.8V175H958.175V27H986.175V111.2L1023.38 64.2H1059.78L1010.98 119.8L1060.18 175H1023.78Z" fill="white"/>
</svg>
